<svg width="80" height="80" viewBox="0 0 80 80" xmlns="http://www.w3.org/2000/svg"><title>Group 5</title><g fill="none" fill-rule="evenodd"><circle fill="#4AD6DD" cx="40" cy="40" r="40"/><path d="M33.555 53.818c-2.424 0-4.389 1.954-4.389 4.364s1.965 4.363 4.389 4.363H62.52c2.424 0 4.39-1.953 4.39-4.363s-1.966-4.364-4.39-4.364H33.555zM20.389 36.364h37.743c2.423 0 4.388 1.953 4.388 4.363s-1.965 4.364-4.388 4.364H20.389c-2.424 0-4.389-1.954-4.389-4.364s1.965-4.363 4.389-4.363zm4.213-8.731c-2.343-.092-4.213-2.009-4.213-4.36 0-2.352 1.87-4.269 4.213-4.36v-.004H49.53v.004c2.342.091 4.213 2.008 4.213 4.36 0 2.351-1.87 4.268-4.213 4.36v.003H24.602v-.003zm24.628 8.73h-4.264v-8.727h4.264c-2.355 0-4.264 1.954-4.264 4.364s1.909 4.364 4.264 4.364zm4.388 17.455h-4.264v-8.727h4.264c-2.355 0-4.264 1.954-4.264 4.364s1.91 4.363 4.264 4.363zM27.184 27.636h4.264v8.728h-4.264c2.355 0 4.264-1.954 4.264-4.364s-1.909-4.364-4.264-4.364zm10.884 17.455h4.264v8.727h-4.264c2.355 0 4.264-1.953 4.264-4.363s-1.909-4.364-4.264-4.364zm-6.62-17.455h13.518v8.728H31.448v-8.728zm10.884 17.455h7.022v8.727h-7.022v-8.727z" fill="#FFF"/></g></svg>